<mxfile host="app.diagrams.net" modified="2023-11-15T16:30:34.587Z" agent="Mozilla/5.0 (Windows NT 10.0; Win64; x64) AppleWebKit/537.36 (KHTML, like Gecko) Chrome/119.0.0.0 Safari/537.36" etag="ctOQYROPfxOwLQA9cT4y" version="21.8.1" type="github">
  <diagram name="Seite-1" id="nKYYwXj5oOyGXuHnyCno">
    <mxGraphModel dx="1783" dy="500" grid="1" gridSize="10" guides="1" tooltips="1" connect="1" arrows="1" fold="1" page="1" pageScale="1" pageWidth="827" pageHeight="1169" math="0" shadow="0">
      <root>
        <mxCell id="0" />
        <mxCell id="1" parent="0" />
        <mxCell id="CdOR40OmgFl1oFGRCvYQ-1" value="Länge" style="rounded=1;whiteSpace=wrap;html=1;fillColor=#f8cecc;strokeColor=#b85450;" vertex="1" parent="1">
          <mxGeometry x="45" y="60" width="90" height="30" as="geometry" />
        </mxCell>
        <mxCell id="CdOR40OmgFl1oFGRCvYQ-2" value="Großbuchstaben" style="rounded=1;whiteSpace=wrap;html=1;fillColor=#f8cecc;strokeColor=#b85450;" vertex="1" parent="1">
          <mxGeometry x="145" y="60" width="120" height="30" as="geometry" />
        </mxCell>
        <mxCell id="CdOR40OmgFl1oFGRCvYQ-4" value="Kleinbuchstaben" style="rounded=1;whiteSpace=wrap;html=1;fillColor=#f8cecc;strokeColor=#b85450;" vertex="1" parent="1">
          <mxGeometry x="275" y="60" width="120" height="30" as="geometry" />
        </mxCell>
        <mxCell id="CdOR40OmgFl1oFGRCvYQ-5" value="Zahlen" style="rounded=1;whiteSpace=wrap;html=1;fillColor=#f8cecc;strokeColor=#b85450;" vertex="1" parent="1">
          <mxGeometry x="405" y="60" width="90" height="30" as="geometry" />
        </mxCell>
        <mxCell id="CdOR40OmgFl1oFGRCvYQ-6" value="Sonderzeichen" style="rounded=1;whiteSpace=wrap;html=1;fillColor=#f8cecc;strokeColor=#b85450;" vertex="1" parent="1">
          <mxGeometry x="505" y="60" width="120" height="30" as="geometry" />
        </mxCell>
        <mxCell id="CdOR40OmgFl1oFGRCvYQ-8" value="Passwort" style="rounded=1;whiteSpace=wrap;html=1;fillColor=#d5e8d4;strokeColor=#82b366;" vertex="1" parent="1">
          <mxGeometry x="-10" y="900" width="90" height="30" as="geometry" />
        </mxCell>
        <mxCell id="CdOR40OmgFl1oFGRCvYQ-9" value="Auswahl" style="rounded=1;whiteSpace=wrap;html=1;fillColor=#d5e8d4;strokeColor=#82b366;" vertex="1" parent="1">
          <mxGeometry x="445" y="570" width="90" height="30" as="geometry" />
        </mxCell>
        <mxCell id="CdOR40OmgFl1oFGRCvYQ-11" value="Zufälliger&lt;br&gt;Großbuchstabe" style="rounded=1;whiteSpace=wrap;html=1;fillColor=#d5e8d4;strokeColor=#82b366;" vertex="1" parent="1">
          <mxGeometry x="-787.5" y="169" width="120" height="40" as="geometry" />
        </mxCell>
        <mxCell id="CdOR40OmgFl1oFGRCvYQ-12" value="Zufälliger&lt;br&gt;Kleinbuchstabe" style="rounded=1;whiteSpace=wrap;html=1;fillColor=#d5e8d4;strokeColor=#82b366;" vertex="1" parent="1">
          <mxGeometry x="-657.5" y="169" width="120" height="40" as="geometry" />
        </mxCell>
        <mxCell id="CdOR40OmgFl1oFGRCvYQ-14" value="Zufällige&lt;br&gt;Zahl" style="rounded=1;whiteSpace=wrap;html=1;fillColor=#d5e8d4;strokeColor=#82b366;" vertex="1" parent="1">
          <mxGeometry x="-507.5" y="169" width="90" height="40" as="geometry" />
        </mxCell>
        <mxCell id="CdOR40OmgFl1oFGRCvYQ-15" value="Zufälliges&lt;br&gt;Sonderzeichen" style="rounded=1;whiteSpace=wrap;html=1;fillColor=#d5e8d4;strokeColor=#82b366;" vertex="1" parent="1">
          <mxGeometry x="-386" y="169" width="120" height="40" as="geometry" />
        </mxCell>
        <mxCell id="CdOR40OmgFl1oFGRCvYQ-17" value="UNIZEICHEN" style="rounded=1;whiteSpace=wrap;html=1;fillColor=#fff2cc;strokeColor=#d6b656;" vertex="1" parent="1">
          <mxGeometry x="-371" y="119" width="90" height="30" as="geometry" />
        </mxCell>
        <mxCell id="CdOR40OmgFl1oFGRCvYQ-18" value="ZUFALLSBEREICH" style="rounded=1;whiteSpace=wrap;html=1;fillColor=#fff2cc;strokeColor=#d6b656;" vertex="1" parent="1">
          <mxGeometry x="-388.5" y="75" width="125" height="30" as="geometry" />
        </mxCell>
        <mxCell id="CdOR40OmgFl1oFGRCvYQ-19" value="33" style="text;html=1;strokeColor=none;fillColor=none;align=center;verticalAlign=middle;whiteSpace=wrap;rounded=0;" vertex="1" parent="1">
          <mxGeometry x="-382" y="31" width="60" height="30" as="geometry" />
        </mxCell>
        <mxCell id="CdOR40OmgFl1oFGRCvYQ-20" value="47" style="text;html=1;strokeColor=none;fillColor=none;align=center;verticalAlign=middle;whiteSpace=wrap;rounded=0;" vertex="1" parent="1">
          <mxGeometry x="-326" y="30" width="60" height="30" as="geometry" />
        </mxCell>
        <mxCell id="CdOR40OmgFl1oFGRCvYQ-22" style="edgeStyle=orthogonalEdgeStyle;rounded=0;orthogonalLoop=1;jettySize=auto;html=1;exitX=0.5;exitY=1;exitDx=0;exitDy=0;entryX=0.292;entryY=0.051;entryDx=0;entryDy=0;entryPerimeter=0;" edge="1" parent="1" source="CdOR40OmgFl1oFGRCvYQ-19" target="CdOR40OmgFl1oFGRCvYQ-18">
          <mxGeometry relative="1" as="geometry" />
        </mxCell>
        <mxCell id="CdOR40OmgFl1oFGRCvYQ-23" style="edgeStyle=orthogonalEdgeStyle;rounded=0;orthogonalLoop=1;jettySize=auto;html=1;exitX=0.5;exitY=1;exitDx=0;exitDy=0;entryX=0.744;entryY=0.058;entryDx=0;entryDy=0;entryPerimeter=0;" edge="1" parent="1" source="CdOR40OmgFl1oFGRCvYQ-20" target="CdOR40OmgFl1oFGRCvYQ-18">
          <mxGeometry relative="1" as="geometry" />
        </mxCell>
        <mxCell id="CdOR40OmgFl1oFGRCvYQ-24" style="edgeStyle=orthogonalEdgeStyle;rounded=0;orthogonalLoop=1;jettySize=auto;html=1;exitX=0.5;exitY=1;exitDx=0;exitDy=0;entryX=0.502;entryY=0.046;entryDx=0;entryDy=0;entryPerimeter=0;" edge="1" parent="1" source="CdOR40OmgFl1oFGRCvYQ-18" target="CdOR40OmgFl1oFGRCvYQ-17">
          <mxGeometry relative="1" as="geometry" />
        </mxCell>
        <mxCell id="CdOR40OmgFl1oFGRCvYQ-25" style="edgeStyle=orthogonalEdgeStyle;rounded=0;orthogonalLoop=1;jettySize=auto;html=1;exitX=0.5;exitY=1;exitDx=0;exitDy=0;entryX=0.5;entryY=0.035;entryDx=0;entryDy=0;entryPerimeter=0;" edge="1" parent="1" source="CdOR40OmgFl1oFGRCvYQ-17" target="CdOR40OmgFl1oFGRCvYQ-15">
          <mxGeometry relative="1" as="geometry" />
        </mxCell>
        <mxCell id="CdOR40OmgFl1oFGRCvYQ-56" style="edgeStyle=orthogonalEdgeStyle;rounded=0;orthogonalLoop=1;jettySize=auto;html=1;exitX=0.5;exitY=1;exitDx=0;exitDy=0;entryX=0.5;entryY=0;entryDx=0;entryDy=0;" edge="1" parent="1" source="CdOR40OmgFl1oFGRCvYQ-26" target="CdOR40OmgFl1oFGRCvYQ-12">
          <mxGeometry relative="1" as="geometry" />
        </mxCell>
        <mxCell id="CdOR40OmgFl1oFGRCvYQ-26" value="UNIZEICHEN" style="rounded=1;whiteSpace=wrap;html=1;fillColor=#fff2cc;strokeColor=#d6b656;" vertex="1" parent="1">
          <mxGeometry x="-642.5" y="119" width="90" height="30" as="geometry" />
        </mxCell>
        <mxCell id="CdOR40OmgFl1oFGRCvYQ-27" value="ZUFALLSBEREICH" style="rounded=1;whiteSpace=wrap;html=1;fillColor=#fff2cc;strokeColor=#d6b656;" vertex="1" parent="1">
          <mxGeometry x="-660" y="75" width="125" height="30" as="geometry" />
        </mxCell>
        <mxCell id="CdOR40OmgFl1oFGRCvYQ-28" value="97" style="text;html=1;strokeColor=none;fillColor=none;align=center;verticalAlign=middle;whiteSpace=wrap;rounded=0;" vertex="1" parent="1">
          <mxGeometry x="-653.5" y="31" width="60" height="30" as="geometry" />
        </mxCell>
        <mxCell id="CdOR40OmgFl1oFGRCvYQ-29" value="122" style="text;html=1;strokeColor=none;fillColor=none;align=center;verticalAlign=middle;whiteSpace=wrap;rounded=0;" vertex="1" parent="1">
          <mxGeometry x="-597.5" y="30" width="60" height="30" as="geometry" />
        </mxCell>
        <mxCell id="CdOR40OmgFl1oFGRCvYQ-30" style="edgeStyle=orthogonalEdgeStyle;rounded=0;orthogonalLoop=1;jettySize=auto;html=1;exitX=0.5;exitY=1;exitDx=0;exitDy=0;entryX=0.292;entryY=0.051;entryDx=0;entryDy=0;entryPerimeter=0;" edge="1" parent="1" source="CdOR40OmgFl1oFGRCvYQ-28" target="CdOR40OmgFl1oFGRCvYQ-27">
          <mxGeometry relative="1" as="geometry" />
        </mxCell>
        <mxCell id="CdOR40OmgFl1oFGRCvYQ-31" style="edgeStyle=orthogonalEdgeStyle;rounded=0;orthogonalLoop=1;jettySize=auto;html=1;exitX=0.5;exitY=1;exitDx=0;exitDy=0;entryX=0.744;entryY=0.058;entryDx=0;entryDy=0;entryPerimeter=0;" edge="1" parent="1" source="CdOR40OmgFl1oFGRCvYQ-29" target="CdOR40OmgFl1oFGRCvYQ-27">
          <mxGeometry relative="1" as="geometry" />
        </mxCell>
        <mxCell id="CdOR40OmgFl1oFGRCvYQ-32" style="edgeStyle=orthogonalEdgeStyle;rounded=0;orthogonalLoop=1;jettySize=auto;html=1;exitX=0.5;exitY=1;exitDx=0;exitDy=0;entryX=0.502;entryY=0.046;entryDx=0;entryDy=0;entryPerimeter=0;" edge="1" parent="1" source="CdOR40OmgFl1oFGRCvYQ-27" target="CdOR40OmgFl1oFGRCvYQ-26">
          <mxGeometry relative="1" as="geometry" />
        </mxCell>
        <mxCell id="CdOR40OmgFl1oFGRCvYQ-57" style="edgeStyle=orthogonalEdgeStyle;rounded=0;orthogonalLoop=1;jettySize=auto;html=1;exitX=0.5;exitY=1;exitDx=0;exitDy=0;entryX=0.5;entryY=0;entryDx=0;entryDy=0;" edge="1" parent="1" source="CdOR40OmgFl1oFGRCvYQ-33" target="CdOR40OmgFl1oFGRCvYQ-11">
          <mxGeometry relative="1" as="geometry" />
        </mxCell>
        <mxCell id="CdOR40OmgFl1oFGRCvYQ-33" value="UNIZEICHEN" style="rounded=1;whiteSpace=wrap;html=1;fillColor=#fff2cc;strokeColor=#d6b656;" vertex="1" parent="1">
          <mxGeometry x="-772.5" y="119" width="90" height="30" as="geometry" />
        </mxCell>
        <mxCell id="CdOR40OmgFl1oFGRCvYQ-34" value="ZUFALLSBEREICH" style="rounded=1;whiteSpace=wrap;html=1;fillColor=#fff2cc;strokeColor=#d6b656;" vertex="1" parent="1">
          <mxGeometry x="-790" y="75" width="125" height="30" as="geometry" />
        </mxCell>
        <mxCell id="CdOR40OmgFl1oFGRCvYQ-35" value="65" style="text;html=1;strokeColor=none;fillColor=none;align=center;verticalAlign=middle;whiteSpace=wrap;rounded=0;" vertex="1" parent="1">
          <mxGeometry x="-783.5" y="31" width="60" height="30" as="geometry" />
        </mxCell>
        <mxCell id="CdOR40OmgFl1oFGRCvYQ-36" value="90" style="text;html=1;strokeColor=none;fillColor=none;align=center;verticalAlign=middle;whiteSpace=wrap;rounded=0;" vertex="1" parent="1">
          <mxGeometry x="-727.5" y="30" width="60" height="30" as="geometry" />
        </mxCell>
        <mxCell id="CdOR40OmgFl1oFGRCvYQ-37" style="edgeStyle=orthogonalEdgeStyle;rounded=0;orthogonalLoop=1;jettySize=auto;html=1;exitX=0.5;exitY=1;exitDx=0;exitDy=0;entryX=0.292;entryY=0.051;entryDx=0;entryDy=0;entryPerimeter=0;" edge="1" parent="1" source="CdOR40OmgFl1oFGRCvYQ-35" target="CdOR40OmgFl1oFGRCvYQ-34">
          <mxGeometry relative="1" as="geometry" />
        </mxCell>
        <mxCell id="CdOR40OmgFl1oFGRCvYQ-38" style="edgeStyle=orthogonalEdgeStyle;rounded=0;orthogonalLoop=1;jettySize=auto;html=1;exitX=0.5;exitY=1;exitDx=0;exitDy=0;entryX=0.744;entryY=0.058;entryDx=0;entryDy=0;entryPerimeter=0;" edge="1" parent="1" source="CdOR40OmgFl1oFGRCvYQ-36" target="CdOR40OmgFl1oFGRCvYQ-34">
          <mxGeometry relative="1" as="geometry" />
        </mxCell>
        <mxCell id="CdOR40OmgFl1oFGRCvYQ-39" style="edgeStyle=orthogonalEdgeStyle;rounded=0;orthogonalLoop=1;jettySize=auto;html=1;exitX=0.5;exitY=1;exitDx=0;exitDy=0;entryX=0.502;entryY=0.046;entryDx=0;entryDy=0;entryPerimeter=0;" edge="1" parent="1" source="CdOR40OmgFl1oFGRCvYQ-34" target="CdOR40OmgFl1oFGRCvYQ-33">
          <mxGeometry relative="1" as="geometry" />
        </mxCell>
        <mxCell id="CdOR40OmgFl1oFGRCvYQ-47" value="UNIZEICHEN" style="rounded=1;whiteSpace=wrap;html=1;fillColor=#fff2cc;strokeColor=#d6b656;" vertex="1" parent="1">
          <mxGeometry x="-507.5" y="119" width="90" height="30" as="geometry" />
        </mxCell>
        <mxCell id="CdOR40OmgFl1oFGRCvYQ-48" value="ZUFALLSBEREICH" style="rounded=1;whiteSpace=wrap;html=1;fillColor=#fff2cc;strokeColor=#d6b656;" vertex="1" parent="1">
          <mxGeometry x="-525" y="75" width="125" height="30" as="geometry" />
        </mxCell>
        <mxCell id="CdOR40OmgFl1oFGRCvYQ-49" value="48" style="text;html=1;strokeColor=none;fillColor=none;align=center;verticalAlign=middle;whiteSpace=wrap;rounded=0;" vertex="1" parent="1">
          <mxGeometry x="-518.5" y="31" width="60" height="30" as="geometry" />
        </mxCell>
        <mxCell id="CdOR40OmgFl1oFGRCvYQ-50" value="59" style="text;html=1;strokeColor=none;fillColor=none;align=center;verticalAlign=middle;whiteSpace=wrap;rounded=0;" vertex="1" parent="1">
          <mxGeometry x="-462.5" y="30" width="60" height="30" as="geometry" />
        </mxCell>
        <mxCell id="CdOR40OmgFl1oFGRCvYQ-51" style="edgeStyle=orthogonalEdgeStyle;rounded=0;orthogonalLoop=1;jettySize=auto;html=1;exitX=0.5;exitY=1;exitDx=0;exitDy=0;entryX=0.292;entryY=0.051;entryDx=0;entryDy=0;entryPerimeter=0;" edge="1" parent="1" source="CdOR40OmgFl1oFGRCvYQ-49" target="CdOR40OmgFl1oFGRCvYQ-48">
          <mxGeometry relative="1" as="geometry" />
        </mxCell>
        <mxCell id="CdOR40OmgFl1oFGRCvYQ-52" style="edgeStyle=orthogonalEdgeStyle;rounded=0;orthogonalLoop=1;jettySize=auto;html=1;exitX=0.5;exitY=1;exitDx=0;exitDy=0;entryX=0.744;entryY=0.058;entryDx=0;entryDy=0;entryPerimeter=0;" edge="1" parent="1" source="CdOR40OmgFl1oFGRCvYQ-50" target="CdOR40OmgFl1oFGRCvYQ-48">
          <mxGeometry relative="1" as="geometry" />
        </mxCell>
        <mxCell id="CdOR40OmgFl1oFGRCvYQ-53" style="edgeStyle=orthogonalEdgeStyle;rounded=0;orthogonalLoop=1;jettySize=auto;html=1;exitX=0.5;exitY=1;exitDx=0;exitDy=0;entryX=0.502;entryY=0.046;entryDx=0;entryDy=0;entryPerimeter=0;" edge="1" parent="1" source="CdOR40OmgFl1oFGRCvYQ-48" target="CdOR40OmgFl1oFGRCvYQ-47">
          <mxGeometry relative="1" as="geometry" />
        </mxCell>
        <mxCell id="CdOR40OmgFl1oFGRCvYQ-54" style="edgeStyle=orthogonalEdgeStyle;rounded=0;orthogonalLoop=1;jettySize=auto;html=1;exitX=0.5;exitY=1;exitDx=0;exitDy=0;entryX=0.498;entryY=0.048;entryDx=0;entryDy=0;entryPerimeter=0;" edge="1" parent="1" source="CdOR40OmgFl1oFGRCvYQ-47" target="CdOR40OmgFl1oFGRCvYQ-14">
          <mxGeometry relative="1" as="geometry" />
        </mxCell>
        <mxCell id="CdOR40OmgFl1oFGRCvYQ-58" value="INDEX" style="rounded=1;whiteSpace=wrap;html=1;fillColor=#fff2cc;strokeColor=#d6b656;" vertex="1" parent="1">
          <mxGeometry x="47.5" y="500" width="494.75" height="30" as="geometry" />
        </mxCell>
        <mxCell id="CdOR40OmgFl1oFGRCvYQ-59" value="13:13" style="text;html=1;strokeColor=none;fillColor=none;align=center;verticalAlign=middle;whiteSpace=wrap;rounded=0;" vertex="1" parent="1">
          <mxGeometry x="30" y="450" width="60" height="30" as="geometry" />
        </mxCell>
        <mxCell id="CdOR40OmgFl1oFGRCvYQ-60" value="LEER" style="text;html=1;strokeColor=none;fillColor=none;align=center;verticalAlign=middle;whiteSpace=wrap;rounded=0;" vertex="1" parent="1">
          <mxGeometry x="82.25" y="450" width="60" height="30" as="geometry" />
        </mxCell>
        <mxCell id="CdOR40OmgFl1oFGRCvYQ-61" value="WENN" style="rounded=1;whiteSpace=wrap;html=1;fillColor=#fff2cc;strokeColor=#d6b656;" vertex="1" parent="1">
          <mxGeometry x="152.25" y="450" width="400" height="30" as="geometry" />
        </mxCell>
        <mxCell id="CdOR40OmgFl1oFGRCvYQ-62" value="UND" style="rounded=1;whiteSpace=wrap;html=1;fillColor=#fff2cc;strokeColor=#d6b656;" vertex="1" parent="1">
          <mxGeometry x="90" y="400" width="130" height="30" as="geometry" />
        </mxCell>
        <mxCell id="CdOR40OmgFl1oFGRCvYQ-63" value="WAHL" style="rounded=1;whiteSpace=wrap;html=1;fillColor=#fff2cc;strokeColor=#d6b656;" vertex="1" parent="1">
          <mxGeometry x="230" y="400" width="250" height="30" as="geometry" />
        </mxCell>
        <mxCell id="CdOR40OmgFl1oFGRCvYQ-64" value="ZUFALLSBEREICH" style="rounded=1;whiteSpace=wrap;html=1;fillColor=#fff2cc;strokeColor=#d6b656;" vertex="1" parent="1">
          <mxGeometry x="229.87" y="350" width="130" height="30" as="geometry" />
        </mxCell>
        <mxCell id="CdOR40OmgFl1oFGRCvYQ-65" value="1" style="text;html=1;strokeColor=none;fillColor=none;align=center;verticalAlign=middle;whiteSpace=wrap;rounded=0;" vertex="1" parent="1">
          <mxGeometry x="229.87" y="300" width="60" height="30" as="geometry" />
        </mxCell>
        <mxCell id="CdOR40OmgFl1oFGRCvYQ-66" value="4" style="text;html=1;strokeColor=none;fillColor=none;align=center;verticalAlign=middle;whiteSpace=wrap;rounded=0;" vertex="1" parent="1">
          <mxGeometry x="291" y="300" width="60" height="30" as="geometry" />
        </mxCell>
        <mxCell id="CdOR40OmgFl1oFGRCvYQ-67" value="2" style="text;html=1;strokeColor=none;fillColor=none;align=center;verticalAlign=middle;whiteSpace=wrap;rounded=0;" vertex="1" parent="1">
          <mxGeometry x="359.87" y="350" width="60" height="30" as="geometry" />
        </mxCell>
        <mxCell id="CdOR40OmgFl1oFGRCvYQ-68" value="3" style="text;html=1;strokeColor=none;fillColor=none;align=center;verticalAlign=middle;whiteSpace=wrap;rounded=0;" vertex="1" parent="1">
          <mxGeometry x="385" y="350" width="60" height="30" as="geometry" />
        </mxCell>
        <mxCell id="CdOR40OmgFl1oFGRCvYQ-69" value="4" style="text;html=1;strokeColor=none;fillColor=none;align=center;verticalAlign=middle;whiteSpace=wrap;rounded=0;" vertex="1" parent="1">
          <mxGeometry x="408" y="350" width="60" height="30" as="geometry" />
        </mxCell>
        <mxCell id="CdOR40OmgFl1oFGRCvYQ-70" value="5" style="text;html=1;strokeColor=none;fillColor=none;align=center;verticalAlign=middle;whiteSpace=wrap;rounded=0;" vertex="1" parent="1">
          <mxGeometry x="435" y="351" width="60" height="30" as="geometry" />
        </mxCell>
        <mxCell id="CdOR40OmgFl1oFGRCvYQ-71" value="=" style="rounded=1;whiteSpace=wrap;html=1;fillColor=#fff2cc;strokeColor=#d6b656;" vertex="1" parent="1">
          <mxGeometry x="90" y="351" width="50" height="30" as="geometry" />
        </mxCell>
      </root>
    </mxGraphModel>
  </diagram>
</mxfile>
